# xmcd
#
# Track frame offsets:
# 150
# 14657
# 28575
# 43229
# 58028
# 70416
# 83701
# 97981
# 112222
# 126232
# 140369
# 154222
# 168244
# 182438
#
# Disc length: 2681 seconds
#
#
# Revision: 0
# Processed by: cddbd v1.5.2PL0 Copyright (c) Steve Scherf et al.
# Submitted via: FreeRIP 2.951 
#
DISCID=c10a770e
DTITLE=Jorge e Mateus - Aí ja era
DYEAR=2010
DGENRE=Sertanejo Universitario
TTITLE0=Seu astral
TTITLE1=Amo noite e dia
TTITLE2=Chove, chove
TTITLE3=Tempo ao tempo
TTITLE4=Se eu chorar
TTITLE5=Esquece o medo e vem
TTITLE6=Volta pra min
TTITLE7=Cilada
TTITLE8=Refem
TTITLE9=Mil anos
TTITLE10=Alguem no seu lugar
TTITLE11=Pra ter o seu amor
TTITLE12=Vetigios
TTITLE13=Aí já era
EXTD=jcordeirodesa@hotmail.com
EXTT0=
EXTT1=
EXTT2=
EXTT3=
EXTT4=
EXTT5=
EXTT6=
EXTT7=
EXTT8=
EXTT9=
EXTT10=
EXTT11=
EXTT12=
EXTT13=
PLAYORDER=
